<mxfile host="app.diagrams.net" modified="2023-12-25T11:07:09.145Z" agent="Mozilla/5.0 (Windows NT 10.0; Win64; x64) AppleWebKit/537.36 (KHTML, like Gecko) Chrome/120.0.0.0 Safari/537.36" etag="UWJ9dR9G9_MsvsM9K2b3" version="22.1.11" type="device">
  <diagram name="Trang-1" id="XeTMWCA0wyap_cFzGR-p">
    <mxGraphModel dx="819" dy="426" grid="1" gridSize="10" guides="1" tooltips="1" connect="1" arrows="1" fold="1" page="1" pageScale="1" pageWidth="850" pageHeight="1100" math="0" shadow="0">
      <root>
        <mxCell id="0" />
        <mxCell id="1" parent="0" />
        <mxCell id="CvJe1m66KH3Qx3ZPjENI-1" value="Context" style="swimlane;fontStyle=0;childLayout=stackLayout;horizontal=1;startSize=26;fillColor=none;horizontalStack=0;resizeParent=1;resizeParentMax=0;resizeLast=0;collapsible=1;marginBottom=0;whiteSpace=wrap;html=1;" vertex="1" parent="1">
          <mxGeometry x="300" y="150" width="305" height="80" as="geometry" />
        </mxCell>
        <mxCell id="CvJe1m66KH3Qx3ZPjENI-2" value="+ text: string" style="text;strokeColor=none;fillColor=none;align=left;verticalAlign=top;spacingLeft=4;spacingRight=4;overflow=hidden;rotatable=0;points=[[0,0.5],[1,0.5]];portConstraint=eastwest;whiteSpace=wrap;html=1;" vertex="1" parent="CvJe1m66KH3Qx3ZPjENI-1">
          <mxGeometry y="26" width="305" height="26" as="geometry" />
        </mxCell>
        <mxCell id="CvJe1m66KH3Qx3ZPjENI-3" value="+ interpret(): void" style="text;strokeColor=none;fillColor=none;align=left;verticalAlign=top;spacingLeft=4;spacingRight=4;overflow=hidden;rotatable=0;points=[[0,0.5],[1,0.5]];portConstraint=eastwest;whiteSpace=wrap;html=1;" vertex="1" parent="CvJe1m66KH3Qx3ZPjENI-1">
          <mxGeometry y="52" width="305" height="28" as="geometry" />
        </mxCell>
        <mxCell id="CvJe1m66KH3Qx3ZPjENI-13" style="edgeStyle=orthogonalEdgeStyle;rounded=0;orthogonalLoop=1;jettySize=auto;html=1;" edge="1" parent="1" source="CvJe1m66KH3Qx3ZPjENI-5" target="CvJe1m66KH3Qx3ZPjENI-1">
          <mxGeometry relative="1" as="geometry" />
        </mxCell>
        <mxCell id="CvJe1m66KH3Qx3ZPjENI-5" value="AbstractExpression" style="swimlane;fontStyle=0;childLayout=stackLayout;horizontal=1;startSize=26;fillColor=none;horizontalStack=0;resizeParent=1;resizeParentMax=0;resizeLast=0;collapsible=1;marginBottom=0;whiteSpace=wrap;html=1;" vertex="1" parent="1">
          <mxGeometry x="130" y="300" width="310" height="70" as="geometry" />
        </mxCell>
        <mxCell id="CvJe1m66KH3Qx3ZPjENI-8" value="+ interpret(context: context) : void" style="text;strokeColor=none;fillColor=none;align=left;verticalAlign=top;spacingLeft=4;spacingRight=4;overflow=hidden;rotatable=0;points=[[0,0.5],[1,0.5]];portConstraint=eastwest;whiteSpace=wrap;html=1;" vertex="1" parent="CvJe1m66KH3Qx3ZPjENI-5">
          <mxGeometry y="26" width="310" height="44" as="geometry" />
        </mxCell>
        <mxCell id="CvJe1m66KH3Qx3ZPjENI-14" style="edgeStyle=orthogonalEdgeStyle;rounded=0;orthogonalLoop=1;jettySize=auto;html=1;" edge="1" parent="1" source="CvJe1m66KH3Qx3ZPjENI-9" target="CvJe1m66KH3Qx3ZPjENI-1">
          <mxGeometry relative="1" as="geometry" />
        </mxCell>
        <mxCell id="CvJe1m66KH3Qx3ZPjENI-9" value="ConcreteExpretion" style="swimlane;fontStyle=0;childLayout=stackLayout;horizontal=1;startSize=26;fillColor=none;horizontalStack=0;resizeParent=1;resizeParentMax=0;resizeLast=0;collapsible=1;marginBottom=0;whiteSpace=wrap;html=1;" vertex="1" parent="1">
          <mxGeometry x="490" y="300" width="330" height="70" as="geometry" />
        </mxCell>
        <mxCell id="CvJe1m66KH3Qx3ZPjENI-10" value="+interpret (context: context) : void" style="text;strokeColor=none;fillColor=none;align=left;verticalAlign=top;spacingLeft=4;spacingRight=4;overflow=hidden;rotatable=0;points=[[0,0.5],[1,0.5]];portConstraint=eastwest;whiteSpace=wrap;html=1;" vertex="1" parent="CvJe1m66KH3Qx3ZPjENI-9">
          <mxGeometry y="26" width="330" height="44" as="geometry" />
        </mxCell>
      </root>
    </mxGraphModel>
  </diagram>
</mxfile>
